Coordinates
version=1
nRows=10
nColumns=46
inDegrees=yes

Units are S.I. units (second, meters, Newtons, ...)
Angles are in degrees.

endheader
time	pelvis_tilt	pelvis_list	pelvis_rotation	pelvis_tx	pelvis_ty	pelvis_tz	bb_angle	bb_tx	bb_ty	bb_tz	hip_flexion_r	hip_adduction_r	hip_rotation_r	knee_angle_r	knee_angle_r_beta	ankle_angle_r	subtalar_angle_r	mtp_angle_r	crank_angle_r	hip_flexion_l	hip_adduction_l	hip_rotation_l	knee_angle_l	knee_angle_l_beta	ankle_angle_l	subtalar_angle_l	mtp_angle_l	crank_angle_l	lumbar_extension	lumbar_bending	lumbar_rotation	arm_flex_r	arm_add_r	arm_rot_r	elbow_flex_r	pro_sup_r	wrist_flex_r	wrist_dev_r	arm_flex_l	arm_add_l	arm_rot_l	elbow_flex_l	pro_sup_l	wrist_flex_l	wrist_dev_l
      7.50000000	     -6.83776041	     -0.73430842	      0.65505258	      0.13062500	      1.14662708	     -0.30669627	      0.00000000	      0.50000000	      0.00000000	      0.25000000	     80.13760858	     -8.52582558	      2.25099461	     99.92660136	      1.74404820	     12.14203420	     -0.98518903	      0.00000000	      0.00000000	     39.25631202	     -5.15857105	     -1.02287367	     57.66010162	      1.00635862	    -15.29024088	     -8.37485118	      0.00000000	      0.00000000	    -71.15450572	      6.36437351	      2.80668559	     86.17502611	    -24.31982209	     36.24392591	     79.68911189	     47.63236320	      0.00000000	      0.00000000	     72.93765071	    -21.99345612	     25.40838493	     73.44595852	     50.74508906	      0.00000000	      0.00000000
      7.50500000	     -6.82679613	     -0.48151884	      0.68393805	      0.13082407	      1.14627746	     -0.30603934	      0.00000000	      0.50000000	      0.00000000	      0.25000000	     78.69637705	     -8.37715390	      2.32335008	     97.70052002	      1.70519576	     14.08134855	     -0.81942834	      0.00000000	      0.00000000	     40.36910245	     -4.85742339	     -0.65115939	     60.13410679	      1.04953816	    -16.02165204	     -8.95037497	      0.00000000	      0.00000000	    -71.17832419	      6.29521754	      2.33934668	     85.88998426	    -24.12735489	     36.04521984	     80.02627079	     47.64960023	      0.00000000	      0.00000000	     72.59484561	    -22.36332567	     25.03581622	     74.00188713	     50.81391133	      0.00000000	      0.00000000
      7.51000000	     -6.73766782	     -0.11900975	      0.58746906	      0.13117597	      1.14606423	     -0.30535400	      0.00000000	      0.50000000	      0.00000000	      0.25000000	     77.06281459	     -8.17665946	      2.46653303	     95.27970875	      1.66294463	     15.81311762	     -0.88041925	      0.00000000	      0.00000000	     41.30001021	     -4.53716258	     -0.51155540	     62.53281487	      1.09140351	    -16.44297631	     -9.52202091	      0.00000000	      0.00000000	    -71.24708733	      6.00704636	      1.82001252	     85.47998879	    -24.06829734	     35.95606001	     80.20972439	     47.66649557	      0.00000000	      0.00000000	     72.46555981	    -22.55698874	     24.77200543	     74.29447033	     50.84112272	      0.00000000	      0.00000000
      7.51500000	     -6.63653760	      0.24774962	      0.54596260	      0.13170327	      1.14563193	     -0.30473752	      0.00000000	      0.50000000	      0.00000000	      0.25000000	     75.36369639	     -8.08451989	      2.55308655	     92.78395776	      1.61938556	     17.42093911	     -0.93324769	      0.00000000	      0.00000000	     42.21674255	     -4.20253845	     -0.42544547	     64.93720483	      1.13336803	    -16.66079967	    -10.02696085	      0.00000000	      0.00000000	    -71.26713126	      5.78404239	      1.31235839	     85.03750718	    -24.01262649	     35.84168209	     80.41175263	     47.68800862	      0.00000000	      0.00000000	     72.22416438	    -22.70079401	     24.59461614	     74.55281453	     50.87185285	      0.00000000	      0.00000000
      7.52000000	     -6.66365145	      0.31006555	      0.52873694	      0.13219639	      1.14468326	     -0.30409734	      0.00000000	      0.50000000	      0.00000000	      0.25000000	     73.68575756	     -7.89438814	      2.33625697	     90.20039631	      1.57429390	     18.83203726	     -0.81603414	      0.00000000	      0.00000000	     43.36618048	     -4.12361043	     -0.12486884	     67.48252211	      1.17779220	    -16.57746562	    -10.41347741	      0.00000000	      0.00000000	    -71.22932942	      5.75437701	      0.73393858	     84.31203855	    -23.25409568	     34.90096219	     80.98553506	     47.66592401	      0.00000000	      0.00000000	     71.19090353	    -23.36362386	     23.51605460	     76.17738627	     51.06204277	      0.00000000	      0.00000000
      7.52500000	     -6.69428686	      0.68747633	      0.46315724	      0.13296936	      1.14340075	     -0.30382757	      0.00000000	      0.50000000	      0.00000000	      0.25000000	     72.07024466	     -7.85348989	      2.39856681	     87.61046867	      1.52909114	     20.15429204	     -0.96382049	      0.00000000	      0.00000000	     44.40696716	     -3.75044496	     -0.11076103	     69.93880649	      1.22066245	    -16.54832745	    -10.93391132	      0.00000000	      0.00000000	    -71.02702313	      5.52757608	      0.18091555	     83.70841632	    -23.08286580	     34.73416268	     81.22733331	     47.68673449	      0.00000000	      0.00000000	     70.67034590	    -23.59277797	     23.23559687	     76.45579144	     51.09399655	      0.00000000	      0.00000000
      7.53000000	     -6.58777315	      1.00823345	      0.45948202	      0.13353788	      1.14231520	     -0.30313058	      0.00000000	      0.50000000	      0.00000000	      0.25000000	     70.31772442	     -7.85294790	      2.32024304	     85.03801886	      1.48419342	     21.08122091	     -1.25126757	      0.00000000	      0.00000000	     45.30047978	     -3.49264717	     -0.13013908	     72.33636824	      1.26250779	    -16.17650157	    -11.41082160	      0.00000000	      0.00000000	    -70.95705887	      5.29030022	     -0.30554325	     83.00153901	    -23.02420000	     34.55475561	     81.47851564	     47.71482088	      0.00000000	      0.00000000	     70.31091672	    -23.74478618	     23.06360094	     76.74881677	     51.13387357	      0.00000000	      0.00000000
      7.53500000	     -6.51728441	      1.24375729	      0.58075203	      0.13399708	      1.14086288	     -0.30262125	      0.00000000	      0.50000000	      0.00000000	      0.25000000	     68.66478715	     -7.92645345	      2.16656066	     82.51612264	      1.44017803	     21.67033076	     -1.49668007	      0.00000000	      0.00000000	     46.30569394	     -3.23944023	     -0.03597096	     74.78852049	      1.30530593	    -15.61409474	    -11.80180641	      0.00000000	      0.00000000	    -70.86457153	      5.21521553	     -0.74078025	     82.24270037	    -22.91787039	     34.17928135	     81.92777077	     47.75753005	      0.00000000	      0.00000000	     69.83638409	    -23.92792821	     22.87934212	     77.22212541	     51.20460839	      0.00000000	      0.00000000
      7.54000000	     -6.54992493	      1.61333435	      0.67529090	      0.13428946	      1.13902224	     -0.30227636	      0.00000000	      0.50000000	      0.00000000	      0.25000000	     67.30512155	     -8.01568722	      2.27717652	     80.13987570	      1.39870469	     21.81837231	     -1.80708408	      0.00000000	      0.00000000	     47.40922908	     -2.83127599	      0.01855931	     77.19458976	      1.34729976	    -14.91402499	    -12.01918895	      0.00000000	      0.00000000	    -70.69994438	      5.04054845	     -1.27125253	     81.35767045	    -22.74206632	     33.37065384	     82.65729335	     47.80185816	      0.00000000	      0.00000000	     69.20639725	    -24.14166876	     22.47975892	     78.25111693	     51.35179325	      0.00000000	      0.00000000
      7.54500000	     -6.47178141	      2.06814937	      0.76476771	      0.13485481	      1.13753808	     -0.30202873	      0.00000000	      0.50000000	      0.00000000	      0.25000000	     65.86895454	     -8.25389473	      2.39958466	     77.85108290	      1.35875772	     21.86639731	     -1.83945802	      0.00000000	      0.00000000	     48.29573544	     -2.37593668	     -0.09224466	     79.43985890	      1.38648710	    -14.21143529	    -12.54921029	      0.00000000	      0.00000000	    -70.57044754	      4.79811920	     -1.81232602	     80.67620586	    -22.85487665	     33.37926233	     82.83126205	     47.83897147	      0.00000000	      0.00000000	     68.94348378	    -24.12535246	     22.49713810	     78.37609483	     51.37964782	      0.00000000	      0.00000000
